<svg xmlns="http://www.w3.org/2000/svg" viewBox="0 0 66.07 66.07"><defs><style>.cls-1{fill:#1d1d1b;}</style></defs><title>Recurso 30</title><g id="Capa_2" data-name="Capa 2"><g id="Capa_1-2" data-name="Capa 1"><polygon class="cls-1" points="7.34 0 3.67 0 0 0 0 66.07 3.67 66.07 7.34 66.07 11.01 66.07 11.01 0 7.34 0"/><polygon class="cls-1" points="25.7 0 22.02 0 18.35 0 18.35 66.07 22.02 66.07 25.7 66.07 29.37 66.07 29.37 0 25.7 0"/><polygon class="cls-1" points="44.05 0 40.38 0 36.71 0 36.71 66.07 40.38 66.07 44.05 66.07 47.72 66.07 47.72 0 44.05 0"/><polygon class="cls-1" points="62.4 0 58.73 0 55.06 0 55.06 66.07 58.73 66.07 62.4 66.07 66.07 66.07 66.07 0 62.4 0"/></g></g></svg>