<svg xmlns="http://www.w3.org/2000/svg" viewBox="0 0 66.07 66.07"><defs><style>.cls-1{fill:#1d1d1b;}</style></defs><title>Recurso 31</title><g id="Capa_2" data-name="Capa 2"><g id="Capa_1-2" data-name="Capa 1"><polygon class="cls-1" points="10.43 0 6.96 0 3.48 0 0 0 0 66.07 3.48 66.07 6.96 66.07 10.43 66.07 13.91 66.07 13.91 0 10.43 0"/><polygon class="cls-1" points="27.82 0 24.34 0 20.86 0 17.39 0 17.39 66.07 20.86 66.07 24.34 66.07 27.82 66.07 31.3 66.07 31.3 0 27.82 0"/><polygon class="cls-1" points="45.21 0 41.73 0 38.25 0 34.77 0 34.77 66.07 38.25 66.07 41.73 66.07 45.21 66.07 48.69 66.07 48.69 0 45.21 0"/><polygon class="cls-1" points="62.59 0 59.12 0 55.64 0 52.16 0 52.16 66.07 55.64 66.07 59.12 66.07 62.59 66.07 66.07 66.07 66.07 0 62.59 0"/></g></g></svg>